<mxfile host="65bd71144e">
    <diagram id="Y3aWjO9RTBm-wFO_9cL8" name="Page-1">
        <mxGraphModel dx="799" dy="497" grid="1" gridSize="10" guides="1" tooltips="1" connect="1" arrows="1" fold="1" page="1" pageScale="1" pageWidth="850" pageHeight="1100" background="none" math="0" shadow="0">
            <root>
                <mxCell id="0"/>
                <mxCell id="1" parent="0"/>
                <mxCell id="21" value="" style="group;" vertex="1" connectable="0" parent="1">
                    <mxGeometry x="140" y="240" width="170.07" height="58.36" as="geometry"/>
                </mxCell>
                <mxCell id="3" value="" style="shape=stencil(lVddc9sgEPw1er0BDjh4TtP/kZk4taeunXHcNvn3PVVDAqdqU7/J8i7cx+6BJr572T8876bgXq6X8/fd78PjdT/xlymEw2m/uxyu+jTx/cR3T+fL7tvl/PP0uPx+fpiR89OP8695hdeFJ0wxz6zg3pY3jor/++Lrgj8eTh2+FHJpwEeStI2vmVwd8N6Rc4BQqYwbeCEXtwnevS/YGCFRCWALXTAMBE4kDAie0kiImXwBVeK2XiOkDHeQQHXMIWuQoA/ZkYx1lUwMCLESj4Q5SFBXLpRlJFQKGRAc5bFzlSnUbcKH1N4JhQrQhq/kR7GqWlDSPlNmSxC0g9pBLKFC9VktdXr8d+dWVVLFCyhrC7jDJ9AGT7FYvAducBTYNiEBbWt2YvEoX0/OrC8Uke6sm3WEVJCvWrdYfEbuX8WfYTw+UOKbCKmJuI8ImN9rweMqZWwcM7TnmgINaRPYiK60tmwR/EoVGTmttpHbyw4cDDrV08oHCSTtI6WVNQsQqvdtRv+vNaUNxN78oEqxlaTDZxBRaEbs8AFazSqvkIA2rw5CxXtQUtcK3skIWedW/GwdE1CAolDZ1bFlet9gNCwCxXEHPdUcCCmy9Zok2LOUrHWy2h8UNav9V2c/g67pFSyMIcVEFeQgpZ3D3f0FjeyiJ/O4w3xDAn2Qaoeq2pXBDrKqkh6M6A6W1VmmrJTAfNEahhEfWiO32mZqpMoDTUjRds1Dqym+mnstbLLGI6P3XZP6Vr5VDD6jfHU8V4Nn0OH5/mjX92D9rLYqBo98pi4w1v/kViTtEtThkWncOp4A4pfVZHHQxbd+F32O14ePj7Cnw/G4fMP1/9uPNn21fPDx/R8=);lineShape=1;" vertex="1" parent="21">
                    <mxGeometry y="6.415310939422021" width="12.44870370939978" height="48.68314349458882" as="geometry"/>
                </mxCell>
                <mxCell id="4" value="" style="shape=stencil(lVjLUhtBDPwaX1UzI2keZ0L+gypMcIVgyjivv482ZpYdrbcpbsaorZVa6unZHd+8Pt697HcpvJ5Px+/734f78+OOv+xSOjw/7k+Hs33a8e2Obx6Op/230/Hn8/3l75e7KXL69OP4a/qFPxdcY2KeUCn8ffuGSvj/xddL/NPheRmfSPIQXyjxdnxV0jLEKxUB8YHiGJ8pt+34kijKEF+p5e34nCiM9UamqNsADVTTCLAM4Im4EY8VWAkBtMieWMZHYoEAe4DSBoAYi6CpMVLSkQQmraBLVEeSM/eUV+OF6lhyYUpginRFWqSIWKYQx/hCFfx+DJ4Dm9tWACBTdGugVBFpQjy2qGXSBMaCqarPIOCRjNPMqxpAk9RYcF2yUQRdKjbajoZEFWSo7HkrmAcDuEEyQEYAobzKoKBLpi9cPaAAHmr2AlAqBQzQ4AECFMMARTwAadIVQOs5twAyCoDJ5tuGbBadPECQDKtfIANA3TbiVhkqkJi62ocJgNrKfkUNkBEgkYoHoH2oq7PEeKio6NhFZQFgNEt2+rh9MC1HXUrEzQMSWlHTiJEH24eGVzRHD4BtlSsbp2i8V2r/UYZZepc14PHmVVsh07OpWPKA2mor+jmmc9e55Sxh1UgjYJpWVLT6DNM+YB4+B5gOcbeiCrukudO0OLKQMRHtTVycosgI8EpmWoUyk2y8x2mNwbQSeQfuhnaRooA2aT+V53iB6p0oOWmt3VNfjQ+reLNzoOS5vHnyEjwRTZOc407dSGyYwzL+vkboS6J0YzTbVSsATIV5K3fH4EgCKma7ZIyDarRHULIUiuOgRoXXDK2k/prEwB7m1vPPNXeTf33VTNXHkq1FH7iYMR4PtXlNZyYjtCSteQoynDmLb04q4Mm5WML3hgoqoHknOWfcineE2Z0A2W0D+IthgIeOqYI7mqdrFurpfOotAAKGzrSwrgDIPRsgiAcg92xj4bRleiSUQfx13gARdUk8z9ZWpEaNVxkCVItPv8H4MN4+vL8ueTg8PV3etiz/71+v2FeXVzN8+w8=);lineShape=1;" vertex="1" parent="21">
                    <mxGeometry x="27.927984710647827" y="9.82018995925736" width="45.27093776961587" height="42.80167814812546" as="geometry"/>
                </mxCell>
                <mxCell id="5" value="" style="shape=stencil(lVddcxoxDPw196qxLcuWn9P0f2QmpDClIUPo17+v6I0vyHDL5O04tFhar1Zi4of37dPbZkrh/XQ8fN/83j2fthN/mVLavW43x93JniZ+nPjh5XDcfDsefr4+z5/fns6R56cfh1/nX/gz4yplPYNS+Du/CBTC/xdf5/D97vUiPBaqbYiXsh6fGim7eKYC4tnii4uvpHE9Pjdq1cXHRKmtA0ogTh5QqMk6oAaqnqHYqAKKNPavOyAl4rwOaJHE15AKhQoAmbKvISlpAgArMfpbEIqg6KZUfUrZzgRFt9YT6AARKuDiDNC8MEolARdngOhrqI0CApi0/QmqnYbbAOmsd4DxFhgATGpeGpZkUSCNRiwjQEBKWkiGEwQD8piSFR0RIFHxRVeFtJq8x4srlBEgUfQAySSAVmVK3gMyUwamoSZmb0psagUdp5XqVQNlJI3QtXnZogjAJIMJLE671qIx+xoS1JK1aPKAHCmgnm6jzYg5FbiHGJZZsFw13+vRYZpUIUYAHVvO7rIhn5HRycwM71zEQJOdqYjX6wER8Ez8PEIN4Ym1upA6ihE7WFOkAu5OdHRL0zzyslz7XF4Aofvn7UltAN8SleFctBaLXhzm+AFMLRvMg5pK7M5we1RT9CTZsE9AG9J7fmmI1lO8XTJVT5EU6Es29gfjSzCfOBKUC7SA0HtriQ8w/6t2ZoZWb/G+dYwxBbYaRs+L2re/lXrZ82m7WwZ7T+qr5sduGEE6eUyf4c4jVL0aQh8SK2L71OJ8N9wePnb0l91+P6/4l9+PO729mv8P8OM/);lineShape=1;" vertex="1" parent="21">
                    <mxGeometry x="1.8876900035462914" y="54.209186793317976" width="25.922046626837247" height="4.150813206682028" as="geometry"/>
                </mxCell>
                <mxCell id="6" value="" style="shape=stencil(7VnJUhwxDP2auaq82zoT8h9UMYSpEKCAbH8fOVNuWuru15BbqrjN4tdu6Wl5sg/x4vn26vF4CO755enh6/Hn6frl9hA/HUI43d8en04v8ukQLw/x4ubh6fjl6eH7/fX5++NVX9k/fXv40Z/w64xz5FwHBff7/AM3ivXvL5/P6+9O93p91es9Vd5e7ynp5zdPDTw/kktqfY2UwPMz+aDWF1lfttdXiqzW50C+ba9nqvp9kqOcgb3yuKgA8oiAAImyBvhGDVjgC9WiKaDqwHrZX1MmPg7b60MaBI31U4ysr29UtIsChQQYjuPv1/dvgIFYqWXtIIYOSoGq1wZ7GEOpUmma5DTCcD3oAkUNyGXsuQ7IxJrk0kYirQMaBb1DzdDoIiRpL1XxW4QAr71UZU8MsDsI8wCQ2QZSZXLIS0y5WUBEPEhoewsoaIdmc0cADQT3Cg9MjACV6nsBgd/1SsXmw57RhdKCB+jWQn7xSpC4Mv5+a2iIDQaQKKId6qi6UwJV8jsJpKtMZwYkkABYGy1lwYM62fNBA2IZVK4D/KBpKpQFVlZpZVkT5+tI2nWAvIDuht5TBDZUR6zd2mAdkyKUzQZTVVgHsCXaZ1hlWhyBMzkpwIbbKiVNtFR7D4gWwRK0JJGWjhooJ9seshstbx1QhwSZglWKLQJI7GkvSXtAvHm30G214C2YkvareLoCvwrA9IeWIHNiRAkWUJBfm7VBAA1YLX6NaQEARYCLZU4A0OiyYjSSk5xXdkAJIQATrsJDRsQJwFsAqhr9lYxbAyUkcbOtfAJwiOliq4CIelQ2hDhfLAAaPWmXOQC5tdke118J2cCL4BOjEdM85qIZICOjeZg4J24nRdkCMiKObY/rwYcAbSiLeXiDliUA01B6AiEvSZ8uFrCToo0XAOTWYvWSAKCXsm1BvZDhBMrO8gDDOy+G3IiHykUblViCHeXdgGJLZZ1U4NYOYTGhQKbjmPtnTa6hFPU247Ifjt7s7Drjkh/VdlM7aDUTA1Rkok6q3kFmYyTWxYlOh3dXZEj/xPH3BIiwTxe2/cEHGN5dB7N9JaS9S7YJJDI0AhtEhppiLEI3ox2CnYFESgdkQ7CnOCLWGe3g7aGJuCEB6dBj04xliRgDPubpj3n6f5mnpSvrBJJKVUB49xMsDZByj7R3WjDdR3J0qJaGhpwdqjEARBmCNNNSvTN4pZhsAgUPdWtgK6X7eAx6nIyeZqRJkLfgxiHGbDwO6Cy3kdc90fPQEuuAbInup7/oeDkOC2dNFB3/ikvMCbzESkEDuNWU0i8YnVQuEjqOQ4iNE34jTET6eBR4Nnd2bijS4kYD34Asn4+FknRPc9zN44pgY71R0H0ugM83xUXWV0BwWFwf8Dh92FhvKvbs8GE9gqww3AeYrGFc4he9fMdiN+a0N3rU2YjbYcxZUbgTEf9w57azXj68XvDdnO7uzveD8//thaD8dL5MjJd/AA==);lineShape=1;" vertex="1" parent="21">
                    <mxGeometry x="110.48332927128344" width="59.58667072871656" height="48.28832339511154" as="geometry"/>
                </mxCell>
            </root>
        </mxGraphModel>
    </diagram>
</mxfile>